<?xml version="1.0" encoding="UTF-8" standalone="no"?>
<svg width="40px" height="40px" viewBox="0 0 40 40" version="1.1" xmlns="http://www.w3.org/2000/svg" xmlns:xlink="http://www.w3.org/1999/xlink">
    <!-- Generator: Sketch 3.8.3 (29802) - http://www.bohemiancoding.com/sketch -->
    <title>Trash Icon</title>
    <desc>Created with Sketch.</desc>
    <defs></defs>
    <g id="Page-1" stroke="none" stroke-width="1" fill="none" fill-rule="evenodd">
        <g id="Trash-Icon" fill="#000000">
            <g id="711-trash@2x" transform="translate(6.000000, 1.000000)">
                <g id="Layer_1">
                    <g id="_x37_11-trash_x40_2x.png">
                        <path d="M8.11028571,8.14353571 C7.73639286,8.16525 7.45071429,8.48757143 7.47242857,8.86214286 L8.82278571,33.2913929 C8.8445,33.6666429 9.16546429,33.9523214 9.54003571,33.9299286 C9.91460714,33.9075357 10.1996071,33.5865714 10.1778929,33.2113214 L8.82753571,8.78207143 C8.80514286,8.40817857 8.48417857,8.12182143 8.11028571,8.14353571 L8.11028571,8.14353571 Z M14.25,8.14285714 C13.8754286,8.14285714 13.5714286,8.44685714 13.5714286,8.82142857 L13.5714286,33.25 C13.5714286,33.62525 13.8754286,33.9285714 14.25,33.9285714 C14.62525,33.9285714 14.9285714,33.62525 14.9285714,33.25 L14.9285714,8.82142857 C14.9285714,8.44685714 14.62525,8.14285714 14.25,8.14285714 L14.25,8.14285714 Z M27.8214286,4.07142857 L20.3571429,4.07142857 L20.3571429,2.71428571 C20.3571429,1.21532143 19.1418214,0 17.6428571,0 L10.8571429,0 C9.35817857,0 8.14285714,1.21532143 8.14285714,2.71428571 L8.14285714,4.07142857 L0.678571429,4.07142857 C0.304,4.07142857 0,4.37542857 0,4.75 C0,5.12525 0.304,5.42857143 0.678571429,5.42857143 L1.35714286,5.42857143 L4.07142857,35.2857143 C4.07142857,36.7846786 5.28675,38 6.78571429,38 L21.7142857,38 C23.21325,38 24.4285714,36.7846786 24.4285714,35.2857143 L27.1428571,5.42857143 L27.8214286,5.42857143 C28.1966786,5.42857143 28.5,5.12525 28.5,4.75 C28.5,4.37542857 28.1966786,4.07142857 27.8214286,4.07142857 L27.8214286,4.07142857 Z M9.5,2.71428571 C9.5,1.96514286 10.108,1.35714286 10.8571429,1.35714286 L17.6428571,1.35714286 C18.392,1.35714286 19,1.96514286 19,2.71428571 L19,4.07142857 L9.5,4.07142857 L9.5,2.71428571 L9.5,2.71428571 Z M23.0714286,35.2857143 C23.0714286,36.0348571 22.4634286,36.6428571 21.7142857,36.6428571 L6.78571429,36.6428571 C6.03657143,36.6428571 5.42857143,36.0348571 5.42857143,35.2857143 L2.71428571,5.42857143 L8.14285714,5.42857143 L9.5,5.42857143 L19,5.42857143 L20.3571429,5.42857143 L25.7857143,5.42857143 L23.0714286,35.2857143 L23.0714286,35.2857143 Z M19.6724643,8.82414286 L18.3227857,33.2126786 C18.3010714,33.58725 18.5860714,33.9075357 18.9599643,33.9299286 C19.3338571,33.9523214 19.6548214,33.6659643 19.6772143,33.29275 L21.0275714,8.90353571 C21.0492857,8.52964286 20.7636071,8.20867857 20.3903929,8.18628571 C20.0158214,8.16389286 19.6948571,8.44957143 19.6724643,8.82414286 L19.6724643,8.82414286 Z" id="Shape"></path>
                    </g>
                </g>
            </g>
        </g>
    </g>
</svg>