<?xml version="1.0" encoding="UTF-8" standalone="no"?>
<svg width="40px" height="40px" viewBox="0 0 40 40" version="1.1" xmlns="http://www.w3.org/2000/svg" xmlns:xlink="http://www.w3.org/1999/xlink">
    <!-- Generator: Sketch 3.8.3 (29802) - http://www.bohemiancoding.com/sketch -->
    <title>Failed Icon</title>
    <desc>Created with Sketch.</desc>
    <defs></defs>
    <g id="Page-1" stroke="none" stroke-width="1" fill="none" fill-rule="evenodd">
        <g id="Failed-Icon" fill="#C00000">
            <g id="791-warning-selected@2x" transform="translate(1.000000, 2.000000)">
                <g id="Layer_1">
                    <g id="_x37_91-warning-selected_x40_2x.png">
                        <path d="M37.8235714,33.2710357 L37.8330714,33.2656071 L20.1691786,0.652107143 L20.1576429,0.658892857 C19.9201429,0.266 19.4933214,0 19,0 C18.5073571,0 18.0798571,0.266 17.8416786,0.658892857 L17.8301429,0.652107143 L0.166928571,33.2656071 L0.177107143,33.2710357 C0.0678571429,33.4671429 0,33.6883571 0,33.9285714 C0,34.6777143 0.608,35.2857143 1.35714286,35.2857143 L36.6428571,35.2857143 C37.392,35.2857143 38,34.6777143 38,33.9285714 C38,33.6883571 37.9321429,33.4671429 37.8235714,33.2710357 L37.8235714,33.2710357 Z M19,31.2142857 C17.5010357,31.2142857 16.2857143,29.9989643 16.2857143,28.5 C16.2857143,27.0010357 17.5010357,25.7857143 19,25.7857143 C20.4989643,25.7857143 21.7142857,27.0010357 21.7142857,28.5 C21.7142857,29.9989643 20.4989643,31.2142857 19,31.2142857 L19,31.2142857 Z M20.3571429,23.0714286 C20.3571429,23.8205714 19.7491429,24.4285714 19,24.4285714 C18.2508571,24.4285714 17.6428571,23.8205714 17.6428571,23.0714286 L16.2857143,13.5714286 C16.2857143,12.8222857 16.8937143,12.2142857 17.6428571,12.2142857 L20.3571429,12.2142857 C21.1062857,12.2142857 21.7142857,12.8222857 21.7142857,13.5714286 L20.3571429,23.0714286 L20.3571429,23.0714286 Z" id="Shape"></path>
                    </g>
                </g>
            </g>
        </g>
    </g>
</svg>