<?xml version="1.0" encoding="UTF-8" standalone="no"?>
<svg width="80px" height="80px" viewBox="0 0 80 80" version="1.1" xmlns="http://www.w3.org/2000/svg" xmlns:xlink="http://www.w3.org/1999/xlink">
    <!-- Generator: Sketch 3.8.3 (29802) - http://www.bohemiancoding.com/sketch -->
    <title>Information Icon</title>
    <desc>Created with Sketch.</desc>
    <defs></defs>
    <g id="Page-1" stroke="none" stroke-width="1" fill="none" fill-rule="evenodd">
        <g id="Information-Icon" fill="#0085FF">
            <g id="724-info@2x" transform="translate(6.000000, 6.000000)">
                <g id="Layer_1">
                    <g id="_x37_24-info_x40_2x.png">
                        <path d="M33.7340714,25.7076429 C34.7188571,25.7076429 35.5712857,25.3433571 36.2901429,24.6172143 C37.009,23.8910714 37.3708571,23.0095 37.3708571,21.9761429 C37.3708571,20.9427857 37.0138571,20.06 36.2998571,19.3253571 C35.5858571,18.5907143 34.731,18.2252143 33.7340714,18.2252143 C32.7371429,18.2252143 31.8786429,18.5919286 31.1585714,19.3253571 C30.4385,20.0587857 30.0790714,20.9427857 30.0790714,21.9761429 C30.0790714,23.0095 30.4385,23.8898571 31.1585714,24.6172143 C31.8786429,25.3445714 32.7371429,25.7076429 33.7340714,25.7076429 L33.7340714,25.7076429 Z M34,0 C15.2222857,0 0,15.2222857 0,34 C0,52.7777143 15.2222857,68 34,68 C52.7777143,68 68,52.7777143 68,34 C68,15.2222857 52.7777143,0 34,0 L34,0 Z M34,65.5714286 C16.5640714,65.5714286 2.42857143,51.4359286 2.42857143,34 C2.42857143,16.5640714 16.5640714,2.42857143 34,2.42857143 C51.4359286,2.42857143 65.5714286,16.5640714 65.5714286,34 C65.5714286,51.4359286 51.4359286,65.5714286 34,65.5714286 L34,65.5714286 Z M38.3301429,47.7675714 C37.9865,47.6036429 37.7205714,47.3559286 37.5372143,47.0232143 C37.3526429,46.6917143 37.2591429,46.2873571 37.2591429,45.8101429 L37.2591429,29.6225 L36.9822857,29.3165 L27.9370714,29.8471429 L27.9370714,31.3358571 C28.3062143,31.3759286 28.7154286,31.4718571 29.1647143,31.6212143 C29.614,31.7705714 29.9491429,31.9272143 30.1701429,32.0899286 C30.4652143,32.3085 30.7117143,32.5962857 30.9084286,32.9569286 C31.1051429,33.3175714 31.2035,33.7352857 31.2035,34.2100714 L31.2035,46.0760714 C31.2035,46.5787857 31.1245714,46.9831429 30.9642857,47.2891429 C30.804,47.5951429 30.5271429,47.8295 30.1325,47.9922143 C29.9102857,48.0881429 29.6467857,48.1561429 29.3395714,48.1962143 C29.0311429,48.2362857 28.7178571,48.2715 28.3985,48.2982143 L28.3985,49.7857143 L40.0653571,49.7857143 L40.0653571,48.297 C39.7447857,48.2569286 39.4363571,48.1889286 39.1412857,48.093 C38.8474286,47.9982857 38.5778571,47.889 38.3301429,47.7675714 L38.3301429,47.7675714 Z" id="Shape"></path>
                    </g>
                </g>
            </g>
        </g>
    </g>
</svg>