<?xml version="1.0" encoding="UTF-8" standalone="no"?>
<svg width="40px" height="40px" viewBox="0 0 40 40" version="1.1" xmlns="http://www.w3.org/2000/svg" xmlns:xlink="http://www.w3.org/1999/xlink">
    <!-- Generator: Sketch 3.8.3 (29802) - http://www.bohemiancoding.com/sketch -->
    <title>Question Icon</title>
    <desc>Created with Sketch.</desc>
    <defs></defs>
    <g id="Page-1" stroke="none" stroke-width="1" fill="none" fill-rule="evenodd">
        <g id="Question-Icon" fill="#417505">
            <g id="739-question@2x" transform="translate(1.000000, 1.000000)">
                <g id="Layer_1">
                    <g id="_x37_39-question_x40_2x.png">
                        <path d="M22.4410357,11.3463929 C22.0338929,10.9691071 21.5548214,10.6800357 21.0051786,10.4791786 C20.4548571,10.2776429 19.8631429,10.1778929 19.2307143,10.1778929 C17.9041071,10.1778929 16.7919286,10.5755357 15.8955357,11.3715 C14.9984643,12.1667857 14.4515357,13.2633571 14.2561071,14.6618929 L16.5618929,14.9027857 C16.6528214,14.0986786 16.9269643,13.4479286 17.3877143,12.9498571 C17.8471071,12.4524643 18.4469643,12.20275 19.1845714,12.20275 C19.5163929,12.20275 19.8292143,12.2672143 20.1230357,12.3947857 C20.4175357,12.5237143 20.6699643,12.7001429 20.881,12.9254286 C21.0920357,13.1500357 21.2616786,13.4194286 21.38925,13.73225 C21.5168214,14.0450714 21.5812857,14.38775 21.5812857,14.7575714 C21.5812857,15.1273929 21.5168214,15.4605714 21.38925,15.7577857 C21.2616786,16.055 21.0988214,16.3366071 20.9033929,16.60125 C20.7072857,16.8665714 20.4887857,17.1244286 20.2472143,17.3727857 C20.0063214,17.6218214 19.76475,17.8674643 19.5238571,18.1083571 C19.2225714,18.4137143 18.9701429,18.6749643 18.7665714,18.8914286 C18.563,19.1078929 18.4008214,19.3331786 18.2800357,19.5666071 C18.15925,19.7993571 18.069,20.0606071 18.0092857,20.3496786 C17.9488929,20.63875 17.9190357,21.0004286 17.9190357,21.4347143 L17.9190357,22.9051786 L20.0891071,22.9051786 L20.0891071,21.8445714 C20.0891071,21.5073214 20.1040357,21.2263929 20.1345714,21.0011071 C20.1644286,20.7765 20.22075,20.5715714 20.3035357,20.3863214 C20.3863214,20.2024286 20.4996429,20.0253214 20.6428214,19.8563571 C20.786,19.6873929 20.9780357,19.4824643 21.2196071,19.2415714 L21.44625,19.0251071 L22.8027143,17.5308929 C23.104,17.1291786 23.3374286,16.6989643 23.5036786,16.2416071 C23.66925,15.7835714 23.7520357,15.2488571 23.7520357,14.6388214 C23.7520357,13.9310714 23.6353214,13.3 23.4012143,12.7462857 C23.1684643,12.1898571 22.8481786,11.7236786 22.4410357,11.3463929 L22.4410357,11.3463929 Z M18.9816786,24.6402857 C18.5745357,24.6402857 18.2243929,24.7963571 17.9305714,25.1098571 C17.6360714,25.4233571 17.4895,25.79725 17.4895,26.2308571 C17.4895,26.6644643 17.63675,27.0376786 17.9305714,27.3511786 C18.2243929,27.6646786 18.5745357,27.8214286 18.9816786,27.8214286 C19.3888214,27.8214286 19.7389643,27.6646786 20.0334643,27.3511786 C20.3272857,27.0376786 20.4738571,26.6644643 20.4738571,26.2308571 C20.4738571,25.79725 20.3266071,25.4233571 20.0334643,25.1098571 C19.7389643,24.7970357 19.3881429,24.6402857 18.9816786,24.6402857 L18.9816786,24.6402857 Z M19,0 C8.50657143,0 0,8.50657143 0,19 C0,29.4934286 8.50657143,38 19,38 C29.4934286,38 38,29.4934286 38,19 C38,8.50657143 29.4934286,0 19,0 L19,0 Z M19,36.6428571 C9.25639286,36.6428571 1.35714286,28.7436071 1.35714286,19 C1.35714286,9.25639286 9.25639286,1.35714286 19,1.35714286 C28.7436071,1.35714286 36.6428571,9.25639286 36.6428571,19 C36.6428571,28.7436071 28.7436071,36.6428571 19,36.6428571 L19,36.6428571 Z" id="Shape"></path>
                    </g>
                </g>
            </g>
        </g>
    </g>
</svg>