<?xml version="1.0" encoding="UTF-8" standalone="no"?>
<svg width="40px" height="40px" viewBox="0 0 40 40" version="1.1" xmlns="http://www.w3.org/2000/svg" xmlns:xlink="http://www.w3.org/1999/xlink">
    <!-- Generator: Sketch 3.8.3 (29802) - http://www.bohemiancoding.com/sketch -->
    <title>Success Icon</title>
    <desc>Created with Sketch.</desc>
    <defs></defs>
    <g id="Page-1" stroke="none" stroke-width="1" fill="none" fill-rule="evenodd">
        <g id="Success-Icon" fill="#008308">
            <g id="888-checkmark@2x" transform="translate(1.000000, 1.000000)">
                <g id="Layer_1">
                    <g id="_x38_88-checkmark_x40_2x.png">
                        <path d="M27.8214286,12.8928571 C27.6341429,12.8928571 27.4645,12.9688571 27.3416786,13.0923571 L16.9642857,23.4690714 L10.6583214,17.1631071 C10.5355,17.0402857 10.3658571,16.9642857 10.1785714,16.9642857 C9.804,16.9642857 9.5,17.2682857 9.5,17.6428571 C9.5,17.8301429 9.576,17.9997857 9.69882143,18.1226071 L16.4845357,24.9083214 C16.6073571,25.0318214 16.777,25.1071429 16.9642857,25.1071429 C17.1515714,25.1071429 17.3212143,25.0318214 17.4440357,24.9083214 L28.3011786,14.0518571 C28.424,13.9283571 28.5,13.7587143 28.5,13.5714286 C28.5,13.1961786 28.1966786,12.8928571 27.8214286,12.8928571 L27.8214286,12.8928571 Z M21.7142857,0 L16.2857143,0 C4.07142857,0 0,4.07142857 0,16.2857143 L0,21.7142857 C0,33.9285714 4.07142857,38 16.2857143,38 L21.7142857,38 C33.9285714,38 38,33.9285714 38,21.7142857 L38,16.2857143 C38,4.07142857 33.9285714,0 21.7142857,0 L21.7142857,0 Z M36.6428571,21.5208929 C36.6428571,32.8625357 32.8625357,36.6428571 21.5208929,36.6428571 L16.4797857,36.6428571 C5.13746429,36.6428571 1.35714286,32.8625357 1.35714286,21.5208929 L1.35714286,16.4797857 C1.35714286,5.13746429 5.13746429,1.35714286 16.4797857,1.35714286 L21.5208929,1.35714286 C32.8625357,1.35714286 36.6428571,5.13746429 36.6428571,16.4797857 L36.6428571,21.5208929 L36.6428571,21.5208929 Z" id="Shape"></path>
                    </g>
                </g>
            </g>
        </g>
    </g>
</svg>