<?xml version="1.0" encoding="UTF-8" standalone="no"?>
<svg width="40px" height="40px" viewBox="0 0 40 40" version="1.1" xmlns="http://www.w3.org/2000/svg" xmlns:xlink="http://www.w3.org/1999/xlink">
    <!-- Generator: Sketch 3.8.3 (29802) - http://www.bohemiancoding.com/sketch -->
    <title>Warning Icon</title>
    <desc>Created with Sketch.</desc>
    <defs></defs>
    <g id="Page-1" stroke="none" stroke-width="1" fill="none" fill-rule="evenodd">
        <g id="Warning-Icon" fill="#FF9D00">
            <g id="791-warning@2x" transform="translate(1.000000, 2.000000)">
                <g id="Layer_1">
                    <g id="_x37_91-warning_x40_2x.png">
                        <path d="M37.8235714,33.2710357 L37.8330714,33.2656071 L20.1691786,0.652107143 L20.1576429,0.658892857 C19.9201429,0.266 19.4933214,0 19,0 C18.5073571,0 18.0798571,0.266 17.8416786,0.658892857 L17.8301429,0.652107143 L0.166928571,33.2656071 L0.177107143,33.2710357 C0.0678571429,33.4671429 0,33.6883571 0,33.9285714 C0,34.6777143 0.608,35.2857143 1.35714286,35.2857143 L36.6428571,35.2857143 C37.392,35.2857143 38,34.6777143 38,33.9285714 C38,33.6883571 37.9321429,33.4671429 37.8235714,33.2710357 L37.8235714,33.2710357 Z M35.2857143,33.9285714 L34.6071429,33.9285714 L3.39285714,33.9285714 L2.71428571,33.9285714 L1.35714286,33.9285714 L19,1.34289286 L36.6428571,33.9285714 L35.2857143,33.9285714 L35.2857143,33.9285714 Z M16.2857143,13.5714286 L17.6428571,23.0714286 C17.6428571,23.8205714 18.2508571,24.4285714 19,24.4285714 C19.7491429,24.4285714 20.3571429,23.8205714 20.3571429,23.0714286 L21.7142857,13.5714286 C21.7142857,12.8222857 21.1062857,12.2142857 20.3571429,12.2142857 L17.6428571,12.2142857 C16.8937143,12.2142857 16.2857143,12.8222857 16.2857143,13.5714286 L16.2857143,13.5714286 Z M19,23.0714286 L17.6428571,13.5714286 L20.3571429,13.5714286 L19,23.0714286 L19,23.0714286 Z M19,25.7857143 C17.5010357,25.7857143 16.2857143,27.0010357 16.2857143,28.5 C16.2857143,29.9989643 17.5010357,31.2142857 19,31.2142857 C20.4989643,31.2142857 21.7142857,29.9989643 21.7142857,28.5 C21.7142857,27.0010357 20.4989643,25.7857143 19,25.7857143 L19,25.7857143 Z M19,29.8571429 C18.2508571,29.8571429 17.6428571,29.2491429 17.6428571,28.5 C17.6428571,27.7508571 18.2508571,27.1428571 19,27.1428571 C19.7491429,27.1428571 20.3571429,27.7508571 20.3571429,28.5 C20.3571429,29.2491429 19.7491429,29.8571429 19,29.8571429 L19,29.8571429 Z" id="Shape"></path>
                    </g>
                </g>
            </g>
        </g>
    </g>
</svg>